<svg width="156" height="185" viewBox="0 0 156 185" fill="none" xmlns="http://www.w3.org/2000/svg">
<path d="M18.151 184.103H41.251C41.4234 184.103 41.5887 184.034 41.7106 183.913C41.8325 183.791 41.901 183.625 41.901 183.453C41.901 183.281 41.8325 183.115 41.7106 182.993C41.5887 182.871 41.4234 182.803 41.251 182.803H18.151C17.9786 182.803 17.8133 182.871 17.6914 182.993C17.5695 183.115 17.501 183.281 17.501 183.453C17.501 183.625 17.5695 183.791 17.6914 183.913C17.8133 184.034 17.9786 184.103 18.151 184.103V184.103Z" fill="#161616"/>
<path d="M119.696 183.324H136.829C137.001 183.324 137.167 183.256 137.289 183.134C137.41 183.012 137.479 182.846 137.479 182.674C137.479 182.502 137.41 182.336 137.289 182.214C137.167 182.092 137.001 182.024 136.829 182.024H119.696C119.524 182.024 119.358 182.092 119.236 182.214C119.114 182.336 119.046 182.502 119.046 182.674C119.046 182.846 119.114 183.012 119.236 183.134C119.358 183.256 119.524 183.324 119.696 183.324V183.324Z" fill="#161616"/>
<path d="M145.137 182.545H155.092C155.264 182.545 155.43 182.477 155.552 182.355C155.673 182.233 155.742 182.067 155.742 181.895C155.742 181.723 155.673 181.557 155.552 181.435C155.43 181.313 155.264 181.245 155.092 181.245H145.141C144.969 181.245 144.803 181.313 144.681 181.435C144.559 181.557 144.491 181.723 144.491 181.895C144.491 182.067 144.559 182.233 144.681 182.355C144.803 182.477 144.969 182.545 145.141 182.545H145.137Z" fill="#161616"/>
<path d="M104.38 130.674H22.2169C20.8411 130.67 19.5228 130.122 18.55 129.149C17.5771 128.176 17.0289 126.858 17.0249 125.482V122.8C17.0289 121.424 17.5771 120.106 18.55 119.133C19.5228 118.16 20.8411 117.612 22.2169 117.608H104.38C105.756 117.612 107.074 118.16 108.047 119.133C109.02 120.106 109.568 121.424 109.572 122.8V125.474C109.57 126.851 109.023 128.171 108.05 129.146C107.077 130.121 105.757 130.67 104.38 130.674V130.674Z" stroke="#161616" stroke-width="0.637" stroke-miterlimit="10"/>
<path d="M112.428 144.428H30.265C28.8892 144.424 27.5709 143.876 26.5981 142.903C25.6252 141.93 25.077 140.612 25.073 139.236V136.553C25.077 135.177 25.6252 133.859 26.5981 132.886C27.5709 131.913 28.8892 131.365 30.265 131.361H112.428C113.804 131.365 115.122 131.913 116.095 132.886C117.068 133.859 117.616 135.177 117.62 136.553V139.236C117.616 140.612 117.068 141.93 116.095 142.903C115.122 143.876 113.804 144.424 112.428 144.428Z" stroke="#161616" stroke-width="0.637" stroke-miterlimit="10"/>
<path d="M93.4761 157.84H11.3131C9.93731 157.836 8.619 157.288 7.64616 156.315C6.67333 155.342 6.12505 154.024 6.12109 152.648V149.965C6.12505 148.589 6.67333 147.271 7.64616 146.298C8.619 145.325 9.93731 144.777 11.3131 144.773H93.4761C94.8519 144.777 96.1702 145.325 97.143 146.298C98.1158 147.271 98.6641 148.589 98.6681 149.965V152.65C98.6636 154.025 98.1151 155.343 97.1423 156.316C96.1695 157.288 94.8515 157.836 93.4761 157.84V157.84Z" fill="#0CF2B4" stroke="#161616" stroke-width="0.637" stroke-miterlimit="10"/>
<path d="M103.514 170.474H21.3939C20.0181 170.47 18.6998 169.922 17.727 168.949C16.7541 167.976 16.2059 166.658 16.2019 165.282V162.6C16.2059 161.224 16.7541 159.906 17.727 158.933C18.6998 157.96 20.0181 157.412 21.3939 157.408H103.557C104.933 157.412 106.251 157.96 107.224 158.933C108.197 159.906 108.745 161.224 108.749 162.6V165.282C108.728 166.66 108.168 167.975 107.19 168.945C106.211 169.915 104.892 170.464 103.514 170.474V170.474Z" stroke="#161616" stroke-width="0.637" stroke-miterlimit="10"/>
<path d="M112.428 183.538H30.265C28.8892 183.534 27.5709 182.986 26.5981 182.013C25.6252 181.04 25.077 179.722 25.073 178.346V175.664C25.077 174.288 25.6252 172.97 26.5981 171.997C27.5709 171.024 28.8892 170.476 30.265 170.472H112.428C113.804 170.476 115.122 171.024 116.095 171.997C117.068 172.97 117.616 174.288 117.62 175.664V178.346C117.616 179.722 117.068 181.04 116.095 182.013C115.122 182.986 113.804 183.534 112.428 183.538Z" stroke="#161616" stroke-width="0.637" stroke-miterlimit="10"/>
<path d="M80.3669 123.23V128.595C80.3669 128.728 80.4196 128.855 80.5134 128.949C80.6072 129.042 80.7343 129.095 80.8669 129.095C80.9996 129.095 81.1267 129.042 81.2205 128.949C81.3143 128.855 81.3669 128.728 81.3669 128.595V123.23C81.3669 123.097 81.3143 122.97 81.2205 122.876C81.1267 122.783 80.9996 122.73 80.8669 122.73C80.7343 122.73 80.6072 122.783 80.5134 122.876C80.4196 122.97 80.3669 123.097 80.3669 123.23Z" fill="#161616"/>
<path d="M83.2661 124.178V129.067C83.2661 129.2 83.3188 129.327 83.4126 129.421C83.5063 129.514 83.6335 129.567 83.7661 129.567C83.8987 129.567 84.0259 129.514 84.1197 129.421C84.2134 129.327 84.2661 129.2 84.2661 129.067V124.178C84.2661 124.045 84.2134 123.918 84.1197 123.824C84.0259 123.731 83.8987 123.678 83.7661 123.678C83.6335 123.678 83.5063 123.731 83.4126 123.824C83.3188 123.918 83.2661 124.045 83.2661 124.178Z" fill="#161616"/>
<path d="M93.0439 121.496V128.332C93.0439 128.465 93.0966 128.592 93.1904 128.686C93.2842 128.779 93.4113 128.832 93.5439 128.832C93.6766 128.832 93.8037 128.779 93.8975 128.686C93.9913 128.592 94.0439 128.465 94.0439 128.332V121.496C94.0439 121.363 93.9913 121.236 93.8975 121.142C93.8037 121.049 93.6766 120.996 93.5439 120.996C93.4113 120.996 93.2842 121.049 93.1904 121.142C93.0966 121.236 93.0439 121.363 93.0439 121.496Z" fill="#161616"/>
<path d="M94.991 125.391V128.074C94.991 128.207 95.0436 128.334 95.1374 128.428C95.2312 128.521 95.3584 128.574 95.491 128.574C95.6236 128.574 95.7507 128.521 95.8445 128.428C95.9383 128.334 95.991 128.207 95.991 128.074V125.391C95.991 125.258 95.9383 125.131 95.8445 125.037C95.7507 124.944 95.6236 124.891 95.491 124.891C95.3584 124.891 95.2312 124.944 95.1374 125.037C95.0436 125.131 94.991 125.258 94.991 125.391Z" fill="#161616"/>
<path d="M27.8411 121.327V128.899C27.8411 129.032 27.8937 129.159 27.9875 129.253C28.0813 129.346 28.2085 129.399 28.3411 129.399C28.4737 129.399 28.6008 129.346 28.6946 129.253C28.7884 129.159 28.8411 129.032 28.8411 128.899V121.327C28.8411 121.194 28.7884 121.067 28.6946 120.973C28.6008 120.88 28.4737 120.827 28.3411 120.827C28.2085 120.827 28.0813 120.88 27.9875 120.973C27.8937 121.067 27.8411 121.194 27.8411 121.327Z" fill="#161616"/>
<path d="M23.8181 123.227V127.683C23.8181 127.816 23.8708 127.943 23.9646 128.037C24.0583 128.13 24.1855 128.183 24.3181 128.183C24.4507 128.183 24.5779 128.13 24.6717 128.037C24.7654 127.943 24.8181 127.816 24.8181 127.683V123.227C24.8181 123.094 24.7654 122.967 24.6717 122.873C24.5779 122.78 24.4507 122.727 24.3181 122.727C24.1855 122.727 24.0583 122.78 23.9646 122.873C23.8708 122.967 23.8181 123.094 23.8181 123.227Z" fill="#161616"/>
<path d="M39.999 121.625V127.682C39.999 127.815 40.0517 127.942 40.1455 128.036C40.2392 128.129 40.3664 128.182 40.499 128.182C40.6316 128.182 40.7588 128.129 40.8526 128.036C40.9464 127.942 40.999 127.815 40.999 127.682V121.625C40.999 121.492 40.9464 121.365 40.8526 121.271C40.7588 121.178 40.6316 121.125 40.499 121.125C40.3664 121.125 40.2392 121.178 40.1455 121.271C40.0517 121.365 39.999 121.492 39.999 121.625Z" fill="#161616"/>
<path d="M35.543 125.174V129.198C35.543 129.331 35.5956 129.458 35.6894 129.552C35.7832 129.645 35.9104 129.698 36.043 129.698C36.1756 129.698 36.3027 129.645 36.3965 129.552C36.4903 129.458 36.543 129.331 36.543 129.198V125.174C36.543 125.041 36.4903 124.914 36.3965 124.82C36.3027 124.727 36.1756 124.674 36.043 124.674C35.9104 124.674 35.7832 124.727 35.6894 124.82C35.5956 124.914 35.543 125.041 35.543 125.174Z" fill="#161616"/>
<path d="M58.2141 121.756V129.631C58.2141 129.764 58.2668 129.891 58.3605 129.985C58.4543 130.078 58.5815 130.131 58.7141 130.131C58.8467 130.131 58.9739 130.078 59.0677 129.985C59.1614 129.891 59.2141 129.764 59.2141 129.631V121.756C59.2141 121.623 59.1614 121.496 59.0677 121.402C58.9739 121.309 58.8467 121.256 58.7141 121.256C58.5815 121.256 58.4543 121.309 58.3605 121.402C58.2668 121.496 58.2141 121.623 58.2141 121.756Z" fill="#161616"/>
<path d="M61.2 124.741V128.765C61.2 128.898 61.2526 129.025 61.3464 129.119C61.4402 129.212 61.5673 129.265 61.7 129.265C61.8326 129.265 61.9597 129.212 62.0535 129.119C62.1473 129.025 62.2 128.898 62.2 128.765V124.741C62.2 124.608 62.1473 124.481 62.0535 124.387C61.9597 124.294 61.8326 124.241 61.7 124.241C61.5673 124.241 61.4402 124.294 61.3464 124.387C61.2526 124.481 61.2 124.608 61.2 124.741Z" fill="#161616"/>
<path d="M65.613 121.151V129.026C65.613 129.159 65.6657 129.286 65.7595 129.38C65.8532 129.473 65.9804 129.526 66.113 129.526C66.2456 129.526 66.3728 129.473 66.4666 129.38C66.5604 129.286 66.613 129.159 66.613 129.026V121.151C66.613 121.018 66.5604 120.891 66.4666 120.797C66.3728 120.704 66.2456 120.651 66.113 120.651C65.9804 120.651 65.8532 120.704 65.7595 120.797C65.6657 120.891 65.613 121.018 65.613 121.151Z" fill="#161616"/>
<path d="M36.7109 134.346V143.692C36.7109 143.825 36.7636 143.952 36.8574 144.046C36.9512 144.139 37.0783 144.192 37.2109 144.192C37.3435 144.192 37.4707 144.139 37.5645 144.046C37.6583 143.952 37.7109 143.825 37.7109 143.692V134.346C37.7109 134.213 37.6583 134.086 37.5645 133.992C37.4707 133.899 37.3435 133.846 37.2109 133.846C37.0783 133.846 36.9512 133.899 36.8574 133.992C36.7636 134.086 36.7109 134.213 36.7109 134.346Z" fill="#161616"/>
<path d="M42.0759 137.462V144.125C42.0759 144.258 42.1286 144.385 42.2224 144.479C42.3161 144.572 42.4433 144.625 42.5759 144.625C42.7085 144.625 42.8357 144.572 42.9295 144.479C43.0233 144.385 43.0759 144.258 43.0759 144.125V137.462C43.0329 136.856 42.0759 136.856 42.0759 137.462Z" fill="#161616"/>
<path d="M59.426 135.687V142.35C59.426 142.483 59.4787 142.61 59.5725 142.704C59.6662 142.797 59.7934 142.85 59.926 142.85C60.0586 142.85 60.1858 142.797 60.2796 142.704C60.3734 142.61 60.426 142.483 60.426 142.35V135.687C60.383 135.081 59.426 135.081 59.426 135.687Z" fill="#161616"/>
<path d="M70.675 133.308V144.125C70.675 144.258 70.7277 144.385 70.8215 144.479C70.9153 144.572 71.0424 144.625 71.175 144.625C71.3077 144.625 71.4348 144.572 71.5286 144.479C71.6224 144.385 71.675 144.258 71.675 144.125V133.308C71.632 132.702 70.675 132.702 70.675 133.308Z" fill="#161616"/>
<path d="M80.885 137.636V141.184C80.885 141.317 80.9377 141.444 81.0315 141.538C81.1252 141.631 81.2524 141.684 81.385 141.684C81.5176 141.684 81.6448 141.631 81.7386 141.538C81.8323 141.444 81.885 141.317 81.885 141.184V137.636C81.885 137.503 81.8323 137.376 81.7386 137.282C81.6448 137.189 81.5176 137.136 81.385 137.136C81.2524 137.136 81.1252 137.189 81.0315 137.282C80.9377 137.376 80.885 137.503 80.885 137.636Z" fill="#161616"/>
<path d="M16.2461 148.451V157.061C16.2461 157.194 16.2988 157.321 16.3925 157.415C16.4863 157.508 16.6135 157.561 16.7461 157.561C16.8787 157.561 17.0059 157.508 17.0996 157.415C17.1934 157.321 17.2461 157.194 17.2461 157.061V148.451C17.2461 148.318 17.1934 148.191 17.0996 148.097C17.0059 148.004 16.8787 147.951 16.7461 147.951C16.6135 147.951 16.4863 148.004 16.3925 148.097C16.2988 148.191 16.2461 148.318 16.2461 148.451Z" fill="#161616"/>
<path d="M39.0911 148.754V157.667C39.0911 157.8 39.1437 157.927 39.2375 158.021C39.3313 158.114 39.4585 158.167 39.5911 158.167C39.7237 158.167 39.8508 158.114 39.9446 158.021C40.0384 157.927 40.0911 157.8 40.0911 157.667V148.754C40.0911 148.621 40.0384 148.494 39.9446 148.4C39.8508 148.307 39.7237 148.254 39.5911 148.254C39.4585 148.254 39.3313 148.307 39.2375 148.4C39.1437 148.494 39.0911 148.621 39.0911 148.754Z" fill="#161616"/>
<path d="M29.615 149.489V155.417C29.615 155.55 29.6677 155.677 29.7614 155.771C29.8552 155.864 29.9824 155.917 30.115 155.917C30.2476 155.917 30.3748 155.864 30.4685 155.771C30.5623 155.677 30.615 155.55 30.615 155.417V149.489C30.615 149.356 30.5623 149.229 30.4685 149.135C30.3748 149.042 30.2476 148.989 30.115 148.989C29.9824 148.989 29.8552 149.042 29.7614 149.135C29.6677 149.229 29.615 149.356 29.615 149.489Z" fill="#161616"/>
<path d="M32.8601 147.542V152.431C32.8601 152.564 32.9128 152.691 33.0065 152.785C33.1003 152.878 33.2275 152.931 33.3601 152.931C33.4927 152.931 33.6199 152.878 33.7137 152.785C33.8074 152.691 33.8601 152.564 33.8601 152.431V147.542C33.8601 147.409 33.8074 147.282 33.7137 147.188C33.6199 147.095 33.4927 147.042 33.3601 147.042C33.2275 147.042 33.1003 147.095 33.0065 147.188C32.9128 147.282 32.8601 147.409 32.8601 147.542Z" fill="#161616"/>
<path d="M64.3149 147.716V156.759C64.3149 156.892 64.3676 157.019 64.4614 157.113C64.5551 157.206 64.6823 157.259 64.8149 157.259C64.9475 157.259 65.0747 157.206 65.1685 157.113C65.2623 157.019 65.3149 156.892 65.3149 156.759V147.716C65.3149 147.583 65.2623 147.456 65.1685 147.362C65.0747 147.269 64.9475 147.216 64.8149 147.216C64.6823 147.216 64.5551 147.269 64.4614 147.362C64.3676 147.456 64.3149 147.583 64.3149 147.716Z" fill="#161616"/>
<path d="M56.1379 147.542V149.749C56.1379 149.882 56.1906 150.009 56.2844 150.103C56.3781 150.196 56.5053 150.249 56.6379 150.249C56.7705 150.249 56.8977 150.196 56.9915 150.103C57.0853 150.009 57.1379 149.882 57.1379 149.749V147.542C57.1379 147.409 57.0853 147.282 56.9915 147.188C56.8977 147.095 56.7705 147.042 56.6379 147.042C56.5053 147.042 56.3781 147.095 56.2844 147.188C56.1906 147.282 56.1379 147.409 56.1379 147.542Z" fill="#161616"/>
<path d="M83.698 144.904V153.514C83.698 153.647 83.7507 153.774 83.8445 153.868C83.9382 153.961 84.0654 154.014 84.198 154.014C84.3306 154.014 84.4578 153.961 84.5516 153.868C84.6453 153.774 84.698 153.647 84.698 153.514V144.904C84.698 144.771 84.6453 144.644 84.5516 144.55C84.4578 144.457 84.3306 144.404 84.198 144.404C84.0654 144.404 83.9382 144.457 83.8445 144.55C83.7507 144.644 83.698 144.771 83.698 144.904Z" fill="#161616"/>
<path d="M88.0249 151.09V156.282C88.0249 156.415 88.0776 156.542 88.1714 156.636C88.2651 156.729 88.3923 156.782 88.5249 156.782C88.6575 156.782 88.7847 156.729 88.8785 156.636C88.9722 156.542 89.0249 156.415 89.0249 156.282V151.09C88.9819 150.484 88.0249 150.484 88.0249 151.09Z" fill="#161616"/>
<path d="M72.449 147.542V155.114C72.449 155.247 72.5017 155.374 72.5954 155.468C72.6892 155.561 72.8164 155.614 72.949 155.614C73.0816 155.614 73.2088 155.561 73.3025 155.468C73.3963 155.374 73.449 155.247 73.449 155.114V147.542C73.449 147.409 73.3963 147.282 73.3025 147.188C73.2088 147.095 73.0816 147.042 72.949 147.042C72.8164 147.042 72.6892 147.095 72.5954 147.188C72.5017 147.282 72.449 147.409 72.449 147.542Z" fill="#161616"/>
<path d="M24.553 158.836V168.484C24.553 168.617 24.6056 168.744 24.6994 168.838C24.7932 168.931 24.9204 168.984 25.053 168.984C25.1856 168.984 25.3128 168.931 25.4065 168.838C25.5003 168.744 25.553 168.617 25.553 168.484V158.836C25.553 158.703 25.5003 158.576 25.4065 158.482C25.3128 158.389 25.1856 158.336 25.053 158.336C24.9204 158.336 24.7932 158.389 24.6994 158.482C24.6056 158.576 24.553 158.703 24.553 158.836Z" fill="#161616"/>
<path d="M32.0811 170.214V160.566C32.0811 160.433 32.0284 160.306 31.9346 160.212C31.8408 160.119 31.7137 160.066 31.5811 160.066C31.4484 160.066 31.3213 160.119 31.2275 160.212C31.1337 160.306 31.0811 160.433 31.0811 160.566V170.214C31.0811 170.347 31.1337 170.474 31.2275 170.568C31.3213 170.661 31.4484 170.714 31.5811 170.714C31.7137 170.714 31.8408 170.661 31.9346 170.568C32.0284 170.474 32.0811 170.347 32.0811 170.214Z" fill="#161616"/>
<path d="M35.196 169.955V166.234C35.196 166.101 35.1434 165.974 35.0496 165.88C34.9558 165.787 34.8287 165.734 34.696 165.734C34.5634 165.734 34.4363 165.787 34.3425 165.88C34.2487 165.974 34.196 166.101 34.196 166.234V169.955C34.196 170.088 34.2487 170.215 34.3425 170.309C34.4363 170.402 34.5634 170.455 34.696 170.455C34.8287 170.455 34.9558 170.402 35.0496 170.309C35.1434 170.215 35.196 170.088 35.196 169.955Z" fill="#161616"/>
<path d="M42.0759 158.099V168.181C42.0759 168.314 42.1286 168.441 42.2224 168.535C42.3161 168.628 42.4433 168.681 42.5759 168.681C42.7085 168.681 42.8357 168.628 42.9295 168.535C43.0233 168.441 43.0759 168.314 43.0759 168.181V158.099C43.0759 157.966 43.0233 157.839 42.9295 157.745C42.8357 157.652 42.7085 157.599 42.5759 157.599C42.4433 157.599 42.3161 157.652 42.2224 157.745C42.1286 157.839 42.0759 157.966 42.0759 158.099Z" fill="#161616"/>
<path d="M44.585 162.816V167.575C44.585 167.708 44.6376 167.835 44.7314 167.929C44.8252 168.022 44.9524 168.075 45.085 168.075C45.2176 168.075 45.3448 168.022 45.4385 167.929C45.5323 167.835 45.585 167.708 45.585 167.575V162.816C45.542 162.21 44.585 162.21 44.585 162.816Z" fill="#161616"/>
<path d="M47.999 161.042V166.234C47.999 166.367 48.0517 166.494 48.1455 166.588C48.2392 166.681 48.3664 166.734 48.499 166.734C48.6316 166.734 48.7588 166.681 48.8526 166.588C48.9464 166.494 48.999 166.367 48.999 166.234V161.042C48.956 160.436 47.999 160.436 47.999 161.042Z" fill="#161616"/>
<path d="M59.123 158.099V168.613C59.123 168.746 59.1757 168.873 59.2695 168.967C59.3633 169.06 59.4904 169.113 59.623 169.113C59.7557 169.113 59.8828 169.06 59.9766 168.967C60.0704 168.873 60.123 168.746 60.123 168.613V158.099C60.123 157.966 60.0704 157.839 59.9766 157.745C59.8828 157.652 59.7557 157.599 59.623 157.599C59.4904 157.599 59.3633 157.652 59.2695 157.745C59.1757 157.839 59.123 157.966 59.123 158.099Z" fill="#161616"/>
<path d="M70.3721 161.951V167.751C70.3721 167.884 70.4248 168.011 70.5185 168.105C70.6123 168.198 70.7395 168.251 70.8721 168.251C71.0047 168.251 71.1319 168.198 71.2256 168.105C71.3194 168.011 71.3721 167.884 71.3721 167.751V161.951C71.3721 161.818 71.3194 161.691 71.2256 161.597C71.1319 161.504 71.0047 161.451 70.8721 161.451C70.7395 161.451 70.6123 161.504 70.5185 161.597C70.4248 161.691 70.3721 161.818 70.3721 161.951Z" fill="#161616"/>
<path d="M85.7761 157.796V168.915C85.7761 169.048 85.8288 169.175 85.9226 169.269C86.0163 169.362 86.1435 169.415 86.2761 169.415C86.4087 169.415 86.5359 169.362 86.6297 169.269C86.7234 169.175 86.7761 169.048 86.7761 168.915V157.796C86.7761 157.663 86.7234 157.536 86.6297 157.442C86.5359 157.349 86.4087 157.296 86.2761 157.296C86.1435 157.296 86.0163 157.349 85.9226 157.442C85.8288 157.536 85.7761 157.663 85.7761 157.796Z" fill="#161616"/>
<path d="M90.532 163.249V168.571C90.532 168.704 90.5847 168.831 90.6784 168.925C90.7722 169.018 90.8994 169.071 91.032 169.071C91.1646 169.071 91.2918 169.018 91.3855 168.925C91.4793 168.831 91.532 168.704 91.532 168.571V163.249C91.532 163.116 91.4793 162.989 91.3855 162.895C91.2918 162.802 91.1646 162.749 91.032 162.749C90.8994 162.749 90.7722 162.802 90.6784 162.895C90.5847 162.989 90.532 163.116 90.532 163.249Z" fill="#161616"/>
<path d="M98.7119 158.36V166.667C98.7119 166.8 98.7646 166.927 98.8584 167.021C98.9521 167.114 99.0793 167.167 99.2119 167.167C99.3445 167.167 99.4717 167.114 99.5655 167.021C99.6592 166.927 99.7119 166.8 99.7119 166.667V158.36C99.6689 157.754 98.7119 157.754 98.7119 158.36Z" fill="#161616"/>
<path d="M36.668 183.151V173.503C36.668 173.37 36.6153 173.243 36.5215 173.149C36.4277 173.056 36.3006 173.003 36.168 173.003C36.0354 173.003 35.9082 173.056 35.8144 173.149C35.7207 173.243 35.668 173.37 35.668 173.503V183.151C35.668 183.284 35.7207 183.411 35.8144 183.505C35.9082 183.598 36.0354 183.651 36.168 183.651C36.3006 183.651 36.4277 183.598 36.5215 183.505C36.6153 183.411 36.668 183.284 36.668 183.151Z" fill="#161616"/>
<path d="M40.2151 182.978V178.089C40.2151 177.956 40.1624 177.829 40.0686 177.735C39.9749 177.642 39.8477 177.589 39.7151 177.589C39.5825 177.589 39.4553 177.642 39.3615 177.735C39.2678 177.829 39.2151 177.956 39.2151 178.089V182.978C39.2151 183.111 39.2678 183.238 39.3615 183.332C39.4553 183.425 39.5825 183.478 39.7151 183.478C39.8477 183.478 39.9749 183.425 40.0686 183.332C40.1624 183.238 40.2151 183.111 40.2151 182.978Z" fill="#161616"/>
<path d="M50.21 171.729V182.848C50.21 182.981 50.2626 183.108 50.3564 183.202C50.4502 183.295 50.5774 183.348 50.71 183.348C50.8426 183.348 50.9697 183.295 51.0635 183.202C51.1573 183.108 51.21 182.981 51.21 182.848V171.729C51.21 171.596 51.1573 171.469 51.0635 171.375C50.9697 171.282 50.8426 171.229 50.71 171.229C50.5774 171.229 50.4502 171.282 50.3564 171.375C50.2626 171.469 50.21 171.596 50.21 171.729Z" fill="#161616"/>
<path d="M59.123 173.503V180.339C59.123 180.472 59.1757 180.599 59.2695 180.693C59.3633 180.786 59.4904 180.839 59.623 180.839C59.7557 180.839 59.8828 180.786 59.9766 180.693C60.0704 180.599 60.123 180.472 60.123 180.339V173.503C60.123 173.37 60.0704 173.243 59.9766 173.149C59.8828 173.056 59.7557 173.003 59.623 173.003C59.4904 173.003 59.3633 173.056 59.2695 173.149C59.1757 173.243 59.123 173.37 59.123 173.503Z" fill="#161616"/>
<path d="M56.0081 174.844V177.526C56.0081 177.659 56.0607 177.786 56.1545 177.88C56.2483 177.973 56.3754 178.026 56.5081 178.026C56.6407 178.026 56.7678 177.973 56.8616 177.88C56.9554 177.786 57.0081 177.659 57.0081 177.526V174.844C57.0081 174.711 56.9554 174.584 56.8616 174.49C56.7678 174.397 56.6407 174.344 56.5081 174.344C56.3754 174.344 56.2483 174.397 56.1545 174.49C56.0607 174.584 56.0081 174.711 56.0081 174.844Z" fill="#161616"/>
<path d="M75.261 170.69V182.242C75.261 182.375 75.3137 182.502 75.4074 182.596C75.5012 182.689 75.6284 182.742 75.761 182.742C75.8936 182.742 76.0208 182.689 76.1145 182.596C76.2083 182.502 76.261 182.375 76.261 182.242V170.69C76.261 170.557 76.2083 170.43 76.1145 170.336C76.0208 170.243 75.8936 170.19 75.761 170.19C75.6284 170.19 75.5012 170.243 75.4074 170.336C75.3137 170.43 75.261 170.557 75.261 170.69Z" fill="#161616"/>
<path d="M78.981 175.709V180.901C78.981 181.034 79.0336 181.161 79.1274 181.255C79.2212 181.348 79.3483 181.401 79.481 181.401C79.6136 181.401 79.7407 181.348 79.8345 181.255C79.9283 181.161 79.981 181.034 79.981 180.901V175.709C79.938 175.103 78.981 175.103 78.981 175.709Z" fill="#161616"/>
<path d="M88.458 171.254V182.071C88.458 182.204 88.5107 182.331 88.6044 182.425C88.6982 182.518 88.8254 182.571 88.958 182.571C89.0906 182.571 89.2178 182.518 89.3116 182.425C89.4053 182.331 89.458 182.204 89.458 182.071V171.254C89.458 171.121 89.4053 170.994 89.3116 170.9C89.2178 170.807 89.0906 170.754 88.958 170.754C88.8254 170.754 88.6982 170.807 88.6044 170.9C88.5107 170.994 88.458 171.121 88.458 171.254Z" fill="#161616"/>
<path d="M105.678 172.164V181.51C105.678 181.643 105.731 181.77 105.824 181.864C105.918 181.957 106.045 182.01 106.178 182.01C106.311 182.01 106.438 181.957 106.532 181.864C106.625 181.77 106.678 181.643 106.678 181.51V172.164C106.635 171.558 105.678 171.558 105.678 172.164Z" fill="#161616"/>
<path d="M108.317 176.185V180.642C108.317 180.775 108.37 180.902 108.464 180.996C108.557 181.089 108.685 181.142 108.817 181.142C108.95 181.142 109.077 181.089 109.171 180.996C109.264 180.902 109.317 180.775 109.317 180.642V176.185C109.317 176.052 109.264 175.925 109.171 175.831C109.077 175.738 108.95 175.685 108.817 175.685C108.685 175.685 108.557 175.738 108.464 175.831C108.37 175.925 108.317 176.052 108.317 176.185Z" fill="#161616"/>
<path d="M97.2419 143.432V136.509C97.2419 136.376 97.1893 136.249 97.0955 136.155C97.0017 136.062 96.8746 136.009 96.7419 136.009C96.6093 136.009 96.4822 136.062 96.3884 136.155C96.2946 136.249 96.2419 136.376 96.2419 136.509V143.432C96.2849 144.038 97.2419 144.081 97.2419 143.432Z" fill="#161616"/>
<path d="M103.212 133.701V143.001C103.212 143.134 103.265 143.261 103.358 143.355C103.452 143.448 103.579 143.501 103.712 143.501C103.845 143.501 103.972 143.448 104.065 143.355C104.159 143.261 104.212 143.134 104.212 143.001V133.701C104.169 133.095 103.212 133.052 103.212 133.701Z" fill="#161616"/>
<path d="M107.711 115.179C108.865 115.854 109.802 116.842 110.415 118.03C111.028 119.217 111.291 120.554 111.172 121.885C111.129 122.491 112.081 122.491 112.172 121.885C112.302 120.385 112 118.88 111.303 117.546C110.605 116.212 109.541 115.106 108.235 114.357C108.181 114.323 108.121 114.3 108.058 114.289C107.995 114.278 107.931 114.28 107.868 114.294C107.806 114.308 107.747 114.334 107.695 114.371C107.643 114.408 107.599 114.455 107.565 114.509C107.53 114.562 107.507 114.623 107.497 114.686C107.486 114.748 107.487 114.813 107.501 114.875C107.516 114.937 107.542 114.996 107.579 115.048C107.615 115.101 107.662 115.145 107.716 115.179H107.711Z" fill="#161616"/>
<path d="M8.62999 147.326C8.056 148.248 7.70268 149.289 7.59757 150.37C7.49245 151.451 7.63839 152.541 8.024 153.556C8.24 154.118 9.192 153.902 8.976 153.296C8.63051 152.403 8.49754 151.441 8.58762 150.487C8.67769 149.534 8.98833 148.614 9.495 147.801C9.55244 147.687 9.56336 147.555 9.52547 147.433C9.48758 147.311 9.40383 147.208 9.29183 147.146C9.17982 147.085 9.04829 147.069 8.92487 147.102C8.80145 147.136 8.69574 147.215 8.62999 147.325V147.326Z" fill="#161616"/>
<path d="M3.74201 142.438C1.25786 145.536 -0.0455876 149.415 0.0640057 153.384C0.0640057 153.517 0.116691 153.644 0.21046 153.738C0.304228 153.831 0.431397 153.884 0.564006 153.884C0.696614 153.884 0.823799 153.831 0.917567 153.738C1.01134 153.644 1.06401 153.517 1.06401 153.384C0.960137 149.656 2.16998 146.01 4.48201 143.084C4.82801 142.651 4.13601 141.959 3.74601 142.435L3.74201 142.438Z" fill="#161616"/>
<path d="M107.278 156.244C108.129 156.681 108.842 157.344 109.338 158.161C109.834 158.978 110.095 159.917 110.09 160.873C110.09 161.006 110.143 161.133 110.236 161.227C110.33 161.32 110.457 161.373 110.59 161.373C110.723 161.373 110.85 161.32 110.944 161.227C111.037 161.133 111.09 161.006 111.09 160.873C111.097 159.75 110.794 158.646 110.214 157.684C109.634 156.722 108.799 155.939 107.802 155.421C107.24 155.121 106.72 155.94 107.283 156.243L107.278 156.244Z" fill="#161616"/>
<path opacity="0.15" d="M62.4109 118.64C67.4863 117.89 72.6666 118.865 77.1219 121.409C78.6093 122.297 79.9762 123.372 81.1889 124.609C81.0589 126.599 80.8889 128.589 80.7559 130.58C74.3959 130.84 68.0789 131.099 61.7189 131.316C62.5839 131.359 69.5069 131.749 73.2709 137.373C74.5321 139.281 75.2638 141.49 75.3909 143.773C74.9789 146.723 73.8003 149.512 71.9729 151.864C69.8335 154.561 66.9428 156.563 63.6659 157.618C64.8849 158.259 65.9641 159.136 66.8406 160.198C67.7171 161.26 68.3733 162.487 68.7709 163.805C69.2429 165.548 69.2429 167.384 68.7709 169.127C64.5709 173.67 60.3739 178.227 56.1799 182.799L113.98 183.448C115.254 182.777 116.294 181.737 116.965 180.463C117.591 179.168 117.841 177.724 117.688 176.294C117.536 174.864 116.985 173.505 116.1 172.372C113.071 168.521 106.192 169.863 105.413 170.036C106.507 169.221 107.388 168.155 107.983 166.927C108.578 165.7 108.869 164.347 108.831 162.984C108.631 160.919 107.639 159.011 106.062 157.662C102.99 157.446 99.9619 157.229 96.8889 157.013C97.6821 156.162 98.2821 155.149 98.648 154.045C99.0138 152.94 99.137 151.77 99.0089 150.613C98.8073 149.244 98.2496 147.952 97.3916 146.866C96.5336 145.78 95.4054 144.939 94.1199 144.426C98.2299 144.383 101.778 144.296 104.59 144.21C112.767 143.994 114.628 143.864 116.099 142.31C118.089 140.147 118.738 135.95 116.748 133.354C115.877 132.286 114.674 131.539 113.33 131.234C110.13 131.104 106.93 130.934 103.725 130.801C104.549 130.829 105.371 130.695 106.143 130.405C106.915 130.116 107.622 129.677 108.225 129.114C108.821 128.417 109.264 127.602 109.525 126.723C109.786 125.843 109.859 124.919 109.739 124.009C109.658 122.004 108.824 120.104 107.403 118.687C105.283 116.827 102.557 117.346 97.5809 117.605C93.6869 117.821 89.7499 117.432 85.8559 117.605C77.7269 117.948 69.5069 118.337 62.4109 118.64Z" fill="#3D3D3D"/>
<path d="M4.00008 30.491C3.18408 35.519 5.41808 40.245 8.38308 44.156C11.3911 48.109 15.4731 51.332 20.5011 52.063C21.3171 52.192 21.6611 50.946 20.8451 50.817C16.5051 50.217 12.8961 47.637 10.1451 44.328C7.09409 40.628 4.43008 35.82 5.24508 30.878C5.37408 30.019 4.12807 29.678 3.99907 30.491H4.00008Z" fill="#161616"/>
<path d="M5.11713 30.491C6.35637 29.5447 7.79752 28.8975 9.32813 28.6C10.1441 28.428 9.80113 27.182 8.98413 27.354C7.2468 27.7078 5.61449 28.4576 4.21413 29.545C3.56913 30.104 4.47212 31.006 5.11412 30.49L5.11713 30.491Z" fill="#161616"/>
<path d="M9.54207 28.686C13.3661 29.717 16.8421 34.186 19.0421 37.28C21.3025 40.4971 23.0424 44.0499 24.1981 47.808C24.4561 48.581 25.6981 48.281 25.4441 47.464C24.1371 43.151 22.0715 39.1057 19.3441 35.518C17.0241 32.467 13.7151 28.471 9.89106 27.44C9.72583 27.3944 9.54925 27.4163 9.40016 27.5008C9.25107 27.5854 9.14168 27.7258 9.09607 27.891C9.05045 28.0562 9.07232 28.2328 9.1569 28.3819C9.24148 28.531 9.38183 28.6404 9.54705 28.686H9.54207Z" fill="#161616"/>
<path d="M20.7582 52.148C22.4087 51.3258 23.8593 50.1523 25.0082 48.71C25.5242 48.065 24.6212 47.163 24.1082 47.81C23.0489 49.1672 21.6979 50.2687 20.1552 51.033C19.3392 51.42 20.0262 52.494 20.7552 52.15L20.7582 52.148Z" fill="#161616"/>
<path d="M7.13596 28.773C7.00696 33.715 9.75696 38.656 12.679 42.48C15.429 46.089 19.296 48.84 24.023 48.754C24.1895 48.7475 24.347 48.6767 24.4625 48.5565C24.5781 48.4364 24.6426 48.2762 24.6426 48.1095C24.6426 47.9429 24.5781 47.7826 24.4625 47.6625C24.347 47.5423 24.1895 47.4716 24.023 47.465C19.253 47.551 15.558 44.457 12.98 40.719C10.617 37.238 8.33896 33.113 8.42496 28.773C8.4184 28.6065 8.34763 28.4489 8.22748 28.3334C8.10733 28.2179 7.94713 28.1534 7.78046 28.1534C7.61379 28.1534 7.45359 28.2179 7.33344 28.3334C7.21329 28.4489 7.14252 28.6065 7.13596 28.773Z" fill="#161616"/>
<path d="M5.7612 36.378C6.40346 35.6134 7.19229 34.985 8.08119 34.53C8.81219 34.186 8.1672 33.069 7.4362 33.413C6.4366 33.8851 5.55564 34.5753 4.8582 35.433C4.3422 36.078 5.2452 37.023 5.7582 36.378H5.7612Z" fill="#161616"/>
<path d="M5.07518 33.456C5.85554 32.8581 6.74623 32.4201 7.69618 32.167C7.86141 32.1214 8.00175 32.012 8.08633 31.8629C8.17091 31.7138 8.1928 31.5372 8.14719 31.372C8.10157 31.2068 7.99218 31.0664 7.84309 30.9819C7.694 30.8973 7.51742 30.8754 7.35219 30.921C6.30532 31.2259 5.31745 31.7053 4.43019 32.339C3.78519 32.812 4.38718 33.929 5.07518 33.456V33.456Z" fill="#161616"/>
<path d="M9.62904 44.327C10.529 43.597 11.477 42.866 12.379 42.136C13.024 41.62 12.121 40.718 11.479 41.236C10.579 41.966 9.63103 42.697 8.72903 43.427C8.04203 43.943 8.98704 44.845 9.62904 44.327Z" fill="#161616"/>
<path d="M12.2082 47.163L14.3992 45.487C14.4738 45.4424 14.5388 45.3835 14.5904 45.3136C14.642 45.2437 14.6792 45.1643 14.6999 45.0799C14.7205 44.9955 14.7242 44.9078 14.7107 44.822C14.6972 44.7361 14.6668 44.6538 14.6212 44.5799C14.5757 44.5059 14.5159 44.4417 14.4453 44.391C14.3747 44.3403 14.2948 44.3042 14.2101 44.2847C14.1254 44.2651 14.0377 44.2626 13.9521 44.2773C13.8664 44.2919 13.7845 44.3234 13.7112 44.37L11.5202 46.046C11.4456 46.0906 11.3806 46.1495 11.329 46.2194C11.2774 46.2893 11.2402 46.3688 11.2195 46.4532C11.1988 46.5376 11.1951 46.6252 11.2086 46.711C11.2221 46.7969 11.2526 46.8792 11.2981 46.9532C11.3437 47.0271 11.4035 47.0913 11.4741 47.142C11.5447 47.1927 11.6246 47.2288 11.7093 47.2484C11.794 47.2679 11.8817 47.2704 11.9673 47.2557C12.0529 47.2411 12.1348 47.2096 12.2082 47.163Z" fill="#161616"/>
<path d="M16.761 50.386C17.491 49.656 18.261 48.968 18.995 48.238C19.595 47.679 18.6949 46.738 18.0949 47.338C17.3639 48.068 16.595 48.756 15.861 49.487C15.261 50.046 16.161 50.987 16.761 50.387V50.386Z" fill="#161616"/>
<path d="M9.7581 31.436C10.5741 32.166 11.3481 32.936 12.1641 33.67C12.1143 33.4151 12.0855 33.1566 12.0781 32.897C11.2191 34.272 10.7461 36.034 11.9061 37.409C12.3243 37.912 12.8994 38.26 13.5391 38.397C13.825 38.4185 14.1122 38.4185 14.3981 38.397C14.6131 38.354 14.7851 38.268 14.9981 38.225C17.3611 37.838 17.7911 38.741 16.2441 40.889C15.4711 41.189 15.8141 42.436 16.5881 42.135C16.9897 42.021 17.3612 41.8198 17.6761 41.5458C17.9911 41.2717 18.2416 40.9315 18.4099 40.5494C18.5782 40.1674 18.6601 39.7529 18.6497 39.3355C18.6394 38.9182 18.5371 38.5083 18.3501 38.135C18.1229 37.7461 17.805 37.4179 17.4234 37.1785C17.0419 36.939 16.6081 36.7955 16.1591 36.76C15.8585 36.753 15.5577 36.7674 15.2591 36.803C14.2281 37.362 13.3251 36.932 12.5521 35.603C12.5771 34.9029 12.8173 34.2276 13.2401 33.669C13.301 33.5454 13.3253 33.4069 13.3101 33.2699C13.2948 33.133 13.2407 33.0032 13.1541 32.896C12.3381 32.166 11.5641 31.396 10.7481 30.662C10.0601 29.974 9.1581 30.877 9.7601 31.435L9.7581 31.436Z" fill="#161616"/>
<path d="M17.278 41.791C18.009 42.65 18.696 43.467 19.426 44.326C19.942 44.971 20.887 44.026 20.326 43.426C19.596 42.567 18.908 41.75 18.177 40.891C17.661 40.246 16.759 41.191 17.277 41.791H17.278Z" fill="#161616"/>
<path d="M45.9821 21.767C42.2011 18.802 39.8821 10.38 43.0601 6.38401C46.7981 1.78401 54.2321 -0.189992 58.4001 4.70801C61.8811 8.79001 62.1001 15.193 59.4741 19.791C58.8028 21.0906 57.7757 22.1726 56.5127 22.9105C55.2498 23.6485 53.803 24.0122 52.3411 23.959C50.961 23.9908 49.5897 23.7318 48.3163 23.1987C47.0429 22.6656 45.896 21.8705 44.9501 20.865C44.3911 20.265 43.4891 21.165 44.0501 21.765C47.1871 25.117 52.8161 26.365 56.9841 24.214C61.3241 21.937 62.9571 15.749 62.4411 11.237C61.9251 6.68201 59.1321 1.78401 54.4061 0.580009C49.8511 -0.579991 43.1061 2.68601 41.0851 6.94001C39.8391 9.56101 40.3121 12.698 40.9561 15.448C41.4316 18.2232 42.8599 20.7457 44.9951 22.581C45.6821 23.181 46.6281 22.281 45.9831 21.765L45.9821 21.767Z" fill="#161616"/>
<path d="M49.5912 5.61302C49.5912 5.57002 49.5482 5.48402 49.5482 5.44102C49.4622 5.69902 49.3332 5.91402 49.2482 6.17102C48.8612 6.04202 48.8182 6.08502 49.0762 6.42902C49.3194 6.85225 49.5204 7.2984 49.6762 7.76102C49.8052 7.50302 49.9762 7.24502 50.1062 6.98802C48.4302 7.50402 46.3252 8.66402 46.9262 10.769C46.9994 11.0904 47.1517 11.3884 47.3693 11.6361C47.5869 11.8837 47.8629 12.0731 48.1722 12.187C48.6882 12.402 48.9882 12.187 49.5042 12.144C49.892 11.9523 50.3312 11.8905 50.7568 11.968C51.1824 12.0454 51.5718 12.2579 51.8672 12.574C52.5122 14.465 51.9962 15.41 50.2772 15.539C50.1634 15.5431 50.0525 15.5762 49.9552 15.6354C49.8579 15.6945 49.7773 15.7775 49.7213 15.8766C49.6652 15.9757 49.6355 16.0876 49.6349 16.2014C49.6344 16.3153 49.6631 16.4274 49.7182 16.527C50.095 17.244 50.4111 17.9913 50.6632 18.761C50.9212 19.534 52.1632 19.234 51.9092 18.417C51.6591 17.5303 51.2983 16.6785 50.8352 15.882C50.6632 16.226 50.4482 16.527 50.2762 16.87C52.3392 16.827 54.3152 14.893 53.4562 12.745C53.2594 12.2516 52.9453 11.8137 52.541 11.4692C52.1368 11.1247 51.6545 10.884 51.1362 10.768C50.5744 10.7451 50.0119 10.7884 49.4602 10.897C48.3862 10.897 48.0852 10.682 48.6442 9.65102C48.8001 9.28599 49.0478 8.96752 49.3632 8.72658C49.6786 8.48563 50.051 8.33041 50.4442 8.27602C50.6024 8.2286 50.7359 8.12128 50.8162 7.9769C50.8966 7.83252 50.9173 7.66249 50.8742 7.50302C50.5742 6.64402 50.2742 5.44002 49.4132 5.01102C49.314 4.95789 49.2032 4.93008 49.0907 4.93008C48.9781 4.93008 48.8674 4.95789 48.7682 5.01102C48.7252 5.05402 48.6392 5.09702 48.5962 5.14002C48.4785 5.21741 48.387 5.32848 48.3335 5.45871C48.28 5.58894 48.267 5.73228 48.2962 5.87002C48.2962 5.91302 48.3392 5.99902 48.3392 6.04202C48.5112 6.73002 49.7572 6.38602 49.5852 5.61202L49.5912 5.61302Z" fill="#161616"/>
<path d="M53.6301 1.95802C60.1611 0.282018 63.5561 7.32902 63.6851 12.701C63.7281 15.15 63.5131 17.901 62.0521 19.963C60.4621 22.197 57.6261 22.885 55.2631 23.916C54.4901 24.26 55.1771 25.377 55.9081 25.033C58.7441 23.787 61.8381 22.97 63.5141 20.091C65.1041 17.341 65.2331 13.691 64.8461 10.591C64.1591 4.91902 59.6461 -0.924982 53.3301 0.708018C53.1685 0.751185 53.0302 0.855798 52.9446 0.999534C52.8591 1.14327 52.8331 1.31474 52.8723 1.47735C52.9115 1.63996 53.0126 1.78082 53.1542 1.86988C53.2958 1.95894 53.4665 1.98913 53.6301 1.95402V1.95802Z" fill="#161616"/>
<path d="M60.8071 19.361L62.6071 18.974C63.4231 18.802 63.0801 17.556 62.2631 17.728L60.4631 18.115C59.6471 18.287 59.9901 19.533 60.8071 19.361Z" fill="#161616"/>
<path d="M62.3531 14.42C63.0411 14.205 63.7281 13.99 64.3731 13.732C65.1461 13.474 64.8031 12.232 64.0291 12.486C63.3421 12.701 62.6541 12.916 62.0091 13.174C61.2361 13.432 61.5791 14.674 62.3531 14.42Z" fill="#161616"/>
<path d="M61.9241 10.596C62.3541 10.51 62.8241 10.424 63.2561 10.338C63.3406 10.3207 63.4205 10.286 63.491 10.2363C63.5615 10.1866 63.6209 10.1228 63.6656 10.0491C63.7103 9.9753 63.7392 9.8931 63.7506 9.80761C63.762 9.72213 63.7556 9.63521 63.7319 9.55231C63.7081 9.46941 63.6675 9.39231 63.6125 9.32585C63.5575 9.25939 63.4894 9.20501 63.4125 9.16611C63.3355 9.12721 63.2513 9.10464 63.1652 9.0998C63.0791 9.09496 62.9929 9.10797 62.9121 9.13801C62.4821 9.22401 62.0121 9.31001 61.5801 9.39601C61.5003 9.41727 61.4257 9.45438 61.3606 9.5051C61.2954 9.55583 61.2412 9.61915 61.2011 9.69128C61.161 9.76341 61.1358 9.84288 61.127 9.92496C61.1182 10.007 61.1261 10.09 61.1501 10.169C61.2009 10.325 61.3088 10.456 61.4522 10.5358C61.5955 10.6155 61.7638 10.6381 61.9231 10.599L61.9241 10.596Z" fill="#161616"/>
<path d="M59.347 5.18099C60.1369 5.31839 60.9484 5.25932 61.71 5.00899C62.483 4.75099 62.14 3.50899 61.366 3.76299C60.8277 3.94719 60.2545 4.00602 59.69 3.93499C59.5307 3.89588 59.3624 3.91848 59.2191 3.99823C59.0757 4.07798 58.9678 4.209 58.917 4.36499C58.8881 4.44667 58.8765 4.53344 58.8828 4.61984C58.889 4.70624 58.9131 4.79041 58.9535 4.86705C58.9939 4.94368 59.0497 5.01114 59.1174 5.06517C59.1852 5.1192 59.2633 5.15863 59.347 5.18099V5.18099Z" fill="#161616"/>
<path d="M52.2131 86.48C46.5841 84.847 42.9311 79.347 42.8461 73.589C42.7171 67.015 48.4321 61.389 54.9641 64.307C60.4641 66.756 62.5701 73.202 62.7421 78.831C62.8281 81.538 62.3551 84.804 59.9061 86.394C57.3711 88.07 54.0621 87.425 51.3551 86.566C50.5821 86.308 50.2381 87.554 51.0111 87.812C55.3941 89.23 60.9371 89.312 63.1291 84.417C65.2351 79.733 63.9021 73.03 61.4961 68.733C59.0901 64.393 53.9331 61.041 48.8201 62.545C43.4921 64.135 41.0851 69.936 41.6871 75.092C41.9605 77.975 43.0758 80.714 44.894 82.9681C46.7123 85.2221 49.1532 86.8917 51.9131 87.769C52.6861 87.984 53.0301 86.738 52.2131 86.48Z" fill="#161616"/>
<path d="M49.3812 67.445C50.4255 68.5486 51.2412 69.8479 51.7812 71.268L52.5542 70.495C50.4912 70.065 49.4172 71.827 49.5462 73.718C49.5214 74.0568 49.5832 74.3964 49.726 74.7047C49.8688 75.013 50.0877 75.2798 50.3622 75.48C50.8922 75.6368 51.4517 75.6663 51.9952 75.566C52.493 75.509 52.9949 75.4946 53.4952 75.523C55.7722 75.695 56.0732 76.683 54.4402 78.488C54.3264 78.4921 54.2155 78.5252 54.1182 78.5843C54.0209 78.6434 53.9403 78.7265 53.8843 78.8256C53.8282 78.9247 53.7985 79.0365 53.7979 79.1504C53.7974 79.2643 53.8261 79.3764 53.8812 79.476C54.666 80.6735 55.3696 81.9223 55.9872 83.214C56.3312 83.944 57.4482 83.3 57.1042 82.569C56.47 81.286 55.767 80.0382 54.9982 78.831C54.8262 79.175 54.6112 79.476 54.4392 79.819C56.2392 79.604 57.7482 77.928 56.8022 76.081C56.348 75.3025 55.6077 74.732 54.7392 74.491C54.1107 74.3137 53.4573 74.241 52.8052 74.276C52.2892 74.319 51.8172 74.362 51.3052 74.405C50.4892 73.417 50.7892 72.557 52.2502 71.827C52.6802 71.913 53.2382 71.527 53.0232 71.054C52.422 69.4183 51.4884 67.9249 50.2812 66.668C49.7222 65.938 48.8202 66.84 49.3812 67.441V67.445Z" fill="#161616"/>
<path d="M44.91 64.566C39.367 69.336 37.6479 77.543 41.8159 83.774C43.747 86.6944 46.75 88.7374 50.1755 89.4611C53.601 90.1847 57.1737 89.5309 60.121 87.641C60.809 87.211 60.1639 86.094 59.4759 86.524C58.1167 87.4042 56.5938 88.001 54.9985 88.2787C53.4031 88.5564 51.7682 88.5093 50.1914 88.1402C48.6147 87.7711 47.1287 87.0876 45.8224 86.1307C44.5161 85.1737 43.4163 83.963 42.589 82.571C39.151 76.813 40.9129 69.723 45.8549 65.471C46.4549 64.955 45.555 64.053 44.91 64.571V64.566Z" fill="#161616"/>
<path opacity="0.14" d="M48.3452 64.007C47.1718 66.6246 46.6132 69.4761 46.7122 72.343C46.7552 73.46 47.0562 79.691 51.5682 83.902C54.6622 86.781 57.9282 86.953 57.7992 87.941C57.6272 89.015 53.5882 89.875 49.9352 88.972C47.8614 88.4108 45.9523 87.3612 44.3673 85.9109C42.7824 84.4606 41.5678 82.6519 40.8252 80.636C39.5702 77.3868 39.6475 73.7737 41.0402 70.581C42.5089 67.5091 45.1359 65.1449 48.3452 64.007V64.007Z" fill="#0CF2B4"/>
<path opacity="0.15" d="M7.82399 28.643C8.08504 31.0573 8.66302 33.4267 9.543 35.69C10.66 38.44 12.594 43.382 17.621 46.218C19.7851 47.414 22.1976 48.0908 24.668 48.195C24.1091 49.2756 23.2803 50.1933 22.262 50.859C21.549 51.3056 20.7641 51.6254 19.942 51.804C17.3618 51.0387 14.9338 49.8319 12.766 48.237C9.20019 45.7499 6.53258 42.1781 5.16 38.053C4.34116 35.3532 4.14996 32.502 4.601 29.717C5.634 29.33 6.70699 28.986 7.82399 28.643Z" fill="#0CF2B4"/>
<path opacity="0.14" d="M54.3611 1.014C56.4732 2.12497 58.2301 3.80774 59.4311 5.87C60.9699 8.68855 61.4991 11.9484 60.9311 15.109C60.7745 17.4057 59.97 19.6109 58.6111 21.469C57.8442 22.4789 56.8973 23.3383 55.8181 24.004C57.7944 23.9135 59.6778 23.139 61.1461 21.813C62.4609 20.4353 63.3423 18.702 63.6811 16.828C64.2322 14.8445 64.3928 12.7728 64.1541 10.728C63.9345 9.07669 63.4268 7.47675 62.6541 6.001C61.8448 4.04964 60.3673 2.45014 58.4861 1.489C57.1832 0.94561 55.7534 0.780967 54.3611 1.014Z" fill="#0CF2B4"/>
</svg>
